<svg width="21" height="20" viewBox="0 0 21 20" fill="none" xmlns="http://www.w3.org/2000/svg">
<path d="M3.35715 4.99995C4.54062 4.99995 5.50001 4.04056 5.50001 2.85709C5.50001 1.67362 4.54062 0.714233 3.35715 0.714233C2.17368 0.714233 1.21429 1.67362 1.21429 2.85709C1.21429 4.04056 2.17368 4.99995 3.35715 4.99995Z" stroke="#000B20" stroke-width="1.5" stroke-linecap="round" stroke-linejoin="round"/>
<path d="M5.5 2.85706H19.7857" stroke="#000B20" stroke-width="1.5" stroke-linecap="round" stroke-linejoin="round"/>
<path d="M10.5 12.1428C11.6835 12.1428 12.6429 11.1834 12.6429 9.99991C12.6429 8.81645 11.6835 7.85706 10.5 7.85706C9.31657 7.85706 8.35718 8.81645 8.35718 9.99991C8.35718 11.1834 9.31657 12.1428 10.5 12.1428Z" stroke="#000B20" stroke-width="1.5" stroke-linecap="round" stroke-linejoin="round"/>
<path d="M1.21429 10H8.35715" stroke="#000B20" stroke-width="1.5" stroke-linecap="round" stroke-linejoin="round"/>
<path d="M12.6429 10H19.7857" stroke="#000B20" stroke-width="1.5" stroke-linecap="round" stroke-linejoin="round"/>
<path d="M17.6429 19.2857C18.8263 19.2857 19.7857 18.3263 19.7857 17.1429C19.7857 15.9594 18.8263 15 17.6429 15C16.4594 15 15.5 15.9594 15.5 17.1429C15.5 18.3263 16.4594 19.2857 17.6429 19.2857Z" stroke="#000B20" stroke-width="1.5" stroke-linecap="round" stroke-linejoin="round"/>
<path d="M15.5 17.1428H1.21429" stroke="#000B20" stroke-width="1.5" stroke-linecap="round" stroke-linejoin="round"/>
</svg>
