<svg width="22" height="20" viewBox="0 0 22 20" fill="none" xmlns="http://www.w3.org/2000/svg">
<path d="M18.0714 7.1428C18.0714 10.6999 11 19.2857 11 19.2857C11 19.2857 3.92859 10.6999 3.92859 7.1428C3.92859 5.43784 4.67361 3.80271 5.99976 2.59712C7.32591 1.39153 9.12456 0.714233 11 0.714233C12.8755 0.714233 14.6741 1.39153 16.0003 2.59712C17.3264 3.80271 18.0714 5.43784 18.0714 7.1428V7.1428Z" stroke="#000B20" stroke-linecap="round" stroke-linejoin="round"/>
<path d="M11 9.28571C12.3018 9.28571 13.3571 8.32632 13.3571 7.14286C13.3571 5.95939 12.3018 5 11 5C9.69815 5 8.64282 5.95939 8.64282 7.14286C8.64282 8.32632 9.69815 9.28571 11 9.28571Z" stroke="#000B20" stroke-linecap="round" stroke-linejoin="round"/>
</svg>
