<svg width="172" height="28" viewBox="0 0 172 28" fill="none" xmlns="http://www.w3.org/2000/svg">
<path d="M68.9168 22.5804C69.2836 22.5804 69.581 22.2966 69.581 21.9464V11.6247C69.581 11.3518 69.398 11.1095 69.1268 11.0232L66.47 10.1778C66.0399 10.041 65.5958 10.3466 65.5958 10.7793V21.9464C65.5958 22.2966 65.8931 22.5804 66.26 22.5804H68.9168Z" fill="#003AA4"/>
<path d="M63.6032 22.5804C63.2363 22.5804 62.939 22.2966 62.939 21.9464V11.6247C62.939 11.3518 63.1219 11.1095 63.3931 11.0232L66.0499 10.1778C66.48 10.041 66.9242 10.3466 66.9242 10.7793V21.9464C66.9242 22.2966 66.6268 22.5804 66.26 22.5804H63.6032Z" fill="#AFF44D"/>
<path d="M74.1424 22.5804C74.5092 22.5804 74.8066 22.2965 74.8066 21.9464V8.13749C74.8066 7.86458 74.6236 7.62229 74.3524 7.53599L71.6956 6.69061C71.2655 6.55375 70.8214 6.85934 70.8214 7.29211V21.9464C70.8214 22.2965 71.1187 22.5804 71.4856 22.5804H74.1424Z" fill="#003AA4"/>
<path d="M68.8288 22.5804C68.4619 22.5804 68.1646 22.2965 68.1646 21.9464V8.13749C68.1646 7.86458 68.3475 7.62229 68.6187 7.53599L71.2755 6.69061C71.7056 6.55375 72.1498 6.85934 72.1498 7.29211V21.9464C72.1498 22.2965 71.8524 22.5804 71.4856 22.5804H68.8288Z" fill="#AFF44D"/>
<path d="M79.369 22.5802C79.7358 22.5802 80.0332 22.2964 80.0332 21.9462V1.47991C80.0332 1.207 79.8503 0.96471 79.579 0.878408L76.9222 0.0330229C76.4921 -0.10383 76.048 0.201757 76.048 0.634525V21.9462C76.048 22.2964 76.3454 22.5802 76.7122 22.5802H79.369Z" fill="#003AA4"/>
<path d="M74.0554 22.5802C73.6886 22.5802 73.3912 22.2964 73.3912 21.9462V1.47991C73.3912 1.207 73.5741 0.96471 73.8453 0.878408L76.5022 0.0330229C76.9322 -0.10383 77.3764 0.201757 77.3764 0.634525V21.9462C77.3764 22.2964 77.079 22.5802 76.7122 22.5802H74.0554Z" fill="#AFF44D"/>
<path d="M84.5943 22.5804C84.9611 22.5804 85.2585 22.2966 85.2585 21.9464V9.08858C85.2585 8.81567 85.0755 8.57338 84.8043 8.48707L82.1475 7.64169C81.7174 7.50483 81.2732 7.81042 81.2732 8.24319V21.9464C81.2732 22.2966 81.5706 22.5804 81.9374 22.5804H84.5943Z" fill="#003AA4"/>
<path d="M79.2806 22.5804C78.9138 22.5804 78.6164 22.2966 78.6164 21.9464V9.08858C78.6164 8.81567 78.7994 8.57338 79.0706 8.48707L81.7274 7.64169C82.1575 7.50483 82.6016 7.81042 82.6016 8.24319V21.9464C82.6016 22.2966 82.3043 22.5804 81.9374 22.5804H79.2806Z" fill="#AFF44D"/>
<path d="M0.25 22.5806V6.68387H10.4874C14.7728 6.68387 19.0582 8.61075 19.0582 14.0301V15.114C19.0582 20.5333 14.7728 22.5806 10.4874 22.5806H0.25ZM4.29733 19.9312H9.29697C12.1539 19.9312 15.0108 18.9677 15.0108 15.114V14.0301C15.0108 10.1763 12.1539 9.2129 9.29697 9.2129H4.29733V19.9312Z" fill="#003AA4"/>
<path d="M22.1458 19.8108V13.7892C22.1458 11.0194 24.5265 11.0194 26.9073 11.0194H32.145C34.5258 11.0194 36.9066 11.0194 36.9066 13.7892V19.8108C36.9066 22.5806 34.5258 22.5806 32.145 22.5806H26.9073C24.5265 22.5806 22.1458 22.5806 22.1458 19.8108ZM25.955 19.5699C25.955 20.2925 26.5502 20.2925 27.1454 20.2925H31.907C32.5022 20.2925 33.0974 20.2925 33.0974 19.5699V14.0301C33.0974 13.3075 32.5022 13.3075 31.907 13.3075H27.1454C26.5502 13.3075 25.955 13.3075 25.955 14.0301V19.5699Z" fill="#003AA4"/>
<path d="M39.7691 22.5806V11.0194H55.0061C57.3869 11.0194 59.7677 11.0194 59.7677 13.7892V22.5806H55.9584V14.0301C55.9584 13.3075 55.3632 13.3075 54.768 13.3075H51.673V22.5806H47.8638V14.0301C47.8638 13.3075 47.2686 13.3075 46.6734 13.3075H43.5784V22.5806H39.7691Z" fill="#003AA4"/>
<path d="M87.2229 22.5806L95.0795 6.68387H100.555L108.412 22.5806H104.126L101.865 18.0043H93.7701L91.5084 22.5806H87.2229ZM95.0795 15.3548H100.555L97.8174 9.81505L95.0795 15.3548Z" fill="#003AA4"/>
<path d="M110.309 19.8108V13.7892C110.309 11.0194 112.69 11.0194 115.071 11.0194H125.07V25.5914C125.07 28 122.689 28 120.308 28H110.785V25.7118H120.07C120.665 25.7118 121.261 25.7118 121.261 25.1097V22.5806H115.071C112.69 22.5806 110.309 22.5806 110.309 19.8108ZM114.118 19.5699C114.118 20.2925 114.714 20.2925 115.309 20.2925H121.261V13.3075H115.309C114.714 13.3075 114.118 13.3075 114.118 14.0301V19.5699Z" fill="#003AA4"/>
<path d="M127.932 19.8108V13.7892C127.932 11.0194 130.313 11.0194 132.694 11.0194H137.932C140.313 11.0194 142.693 11.0194 142.693 13.7892V17.643H131.742V19.5699C131.742 20.2925 132.337 20.2925 132.932 20.2925H142.217V22.5806H132.694C130.313 22.5806 127.932 22.5806 127.932 19.8108ZM131.742 15.3548H138.884V14.0301C138.884 13.3075 138.289 13.3075 137.694 13.3075H132.932C132.337 13.3075 131.742 13.3075 131.742 14.0301V15.3548Z" fill="#003AA4"/>
<path d="M145.556 22.5806V11.0194H155.555C157.936 11.0194 160.317 11.0194 160.317 13.7892V22.5806H156.507V14.0301C156.507 13.3075 155.912 13.3075 155.317 13.3075H149.365V22.5806H145.556Z" fill="#003AA4"/>
<path d="M163.179 19.8108V6.68387H166.988V11.0194H171.75V13.3075H166.988V19.5699C166.988 20.2925 167.584 20.2925 168.179 20.2925H171.75V22.5806H167.941C165.56 22.5806 163.179 22.5806 163.179 19.8108Z" fill="#003AA4"/>
</svg>
